<mxfile host="app.diagrams.net" agent="Mozilla/5.0 (Windows NT 10.0; Win64; x64) AppleWebKit/537.36 (KHTML, like Gecko) Chrome/141.0.0.0 Safari/537.36 Edg/141.0.0.0" version="28.2.3">
  <diagram id="R2lEEEUBdFMjLlhIrx00" name="Page-1">
    <mxGraphModel grid="1" page="1" gridSize="10" guides="1" tooltips="1" connect="1" arrows="1" fold="1" pageScale="1" pageWidth="850" pageHeight="1100" math="0" shadow="0" extFonts="Permanent Marker^https://fonts.googleapis.com/css?family=Permanent+Marker">
      <root>
        <mxCell id="0" />
        <mxCell id="1" parent="0" />
        <mxCell id="701janBloOA3HdeUx_5--1" value="bold" style="ellipse;whiteSpace=wrap;html=1;align=center;" vertex="1" parent="1">
          <mxGeometry x="350" y="290" width="100" height="40" as="geometry" />
        </mxCell>
        <mxCell id="701janBloOA3HdeUx_5--2" value="characters" style="whiteSpace=wrap;html=1;align=center;" vertex="1" parent="1">
          <mxGeometry x="190" y="360" width="100" height="40" as="geometry" />
        </mxCell>
        <mxCell id="701janBloOA3HdeUx_5--4" value="italic" style="ellipse;whiteSpace=wrap;html=1;align=center;" vertex="1" parent="1">
          <mxGeometry x="210" y="290" width="100" height="40" as="geometry" />
        </mxCell>
        <mxCell id="701janBloOA3HdeUx_5--5" value="rgb" style="ellipse;whiteSpace=wrap;html=1;align=center;" vertex="1" parent="1">
          <mxGeometry x="80" y="290" width="100" height="40" as="geometry" />
        </mxCell>
        <mxCell id="701janBloOA3HdeUx_5--8" value="contain" style="shape=rhombus;perimeter=rhombusPerimeter;whiteSpace=wrap;html=1;align=center;" vertex="1" parent="1">
          <mxGeometry x="160" y="450" width="120" height="60" as="geometry" />
        </mxCell>
        <mxCell id="701janBloOA3HdeUx_5--9" value="tables" style="whiteSpace=wrap;html=1;align=center;" vertex="1" parent="1">
          <mxGeometry x="-240" y="780" width="100" height="40" as="geometry" />
        </mxCell>
        <mxCell id="701janBloOA3HdeUx_5--10" value="lists" style="whiteSpace=wrap;html=1;align=center;" vertex="1" parent="1">
          <mxGeometry x="570" y="740" width="100" height="40" as="geometry" />
        </mxCell>
        <mxCell id="701janBloOA3HdeUx_5--13" value="superscript" style="ellipse;whiteSpace=wrap;html=1;align=center;" vertex="1" parent="1">
          <mxGeometry x="20" y="340" width="100" height="40" as="geometry" />
        </mxCell>
        <mxCell id="701janBloOA3HdeUx_5--14" value="subscript" style="ellipse;whiteSpace=wrap;html=1;align=center;" vertex="1" parent="1">
          <mxGeometry x="260" y="230" width="100" height="40" as="geometry" />
        </mxCell>
        <mxCell id="701janBloOA3HdeUx_5--15" value="text" style="whiteSpace=wrap;html=1;align=center;" vertex="1" parent="1">
          <mxGeometry x="140" y="550" width="100" height="40" as="geometry" />
        </mxCell>
        <mxCell id="701janBloOA3HdeUx_5--16" value="images" style="whiteSpace=wrap;html=1;align=center;" vertex="1" parent="1">
          <mxGeometry x="560" y="870" width="100" height="40" as="geometry" />
        </mxCell>
        <mxCell id="701janBloOA3HdeUx_5--18" value="contain" style="shape=rhombus;perimeter=rhombusPerimeter;whiteSpace=wrap;html=1;align=center;" vertex="1" parent="1">
          <mxGeometry x="620" y="630" width="120" height="60" as="geometry" />
        </mxCell>
        <mxCell id="701janBloOA3HdeUx_5--19" value="documents" style="whiteSpace=wrap;html=1;align=center;" vertex="1" parent="1">
          <mxGeometry x="120" y="1400" width="100" height="40" as="geometry" />
        </mxCell>
        <mxCell id="701janBloOA3HdeUx_5--20" value="contain" style="shape=rhombus;perimeter=rhombusPerimeter;whiteSpace=wrap;html=1;align=center;" vertex="1" parent="1">
          <mxGeometry x="-360" y="680" width="120" height="60" as="geometry" />
        </mxCell>
        <mxCell id="701janBloOA3HdeUx_5--23" value="contain" style="shape=rhombus;perimeter=rhombusPerimeter;whiteSpace=wrap;html=1;align=center;" vertex="1" parent="1">
          <mxGeometry x="360" y="720" width="120" height="60" as="geometry" />
        </mxCell>
        <mxCell id="701janBloOA3HdeUx_5--24" value="contain" style="shape=rhombus;perimeter=rhombusPerimeter;whiteSpace=wrap;html=1;align=center;" vertex="1" parent="1">
          <mxGeometry x="370" y="800" width="120" height="60" as="geometry" />
        </mxCell>
        <mxCell id="701janBloOA3HdeUx_5--25" value="margins" style="ellipse;whiteSpace=wrap;html=1;align=center;" vertex="1" parent="1">
          <mxGeometry x="290" y="1360" width="100" height="40" as="geometry" />
        </mxCell>
        <mxCell id="701janBloOA3HdeUx_5--26" value="bodies" style="whiteSpace=wrap;html=1;align=center;" vertex="1" parent="1">
          <mxGeometry x="-80" y="960" width="100" height="40" as="geometry" />
        </mxCell>
        <mxCell id="701janBloOA3HdeUx_5--27" value="headers" style="whiteSpace=wrap;html=1;align=center;" vertex="1" parent="1">
          <mxGeometry x="130" y="980" width="100" height="40" as="geometry" />
        </mxCell>
        <mxCell id="701janBloOA3HdeUx_5--28" value="footers" style="whiteSpace=wrap;html=1;align=center;" vertex="1" parent="1">
          <mxGeometry x="325" y="980" width="100" height="40" as="geometry" />
        </mxCell>
        <mxCell id="701janBloOA3HdeUx_5--29" value="content_container" style="whiteSpace=wrap;html=1;align=center;" vertex="1" parent="1">
          <mxGeometry x="80" y="670" width="100" height="40" as="geometry" />
        </mxCell>
        <mxCell id="701janBloOA3HdeUx_5--30" value="have" style="shape=rhombus;perimeter=rhombusPerimeter;whiteSpace=wrap;html=1;align=center;" vertex="1" parent="1">
          <mxGeometry x="-40" y="850" width="120" height="60" as="geometry" />
        </mxCell>
        <mxCell id="701janBloOA3HdeUx_5--34" value="" style="endArrow=none;html=1;rounded=0;" edge="1" parent="1" source="701janBloOA3HdeUx_5--127" target="701janBloOA3HdeUx_5--26">
          <mxGeometry width="50" height="50" relative="1" as="geometry">
            <mxPoint x="133.75" y="1033.1249999999998" as="sourcePoint" />
            <mxPoint x="160" y="1050" as="targetPoint" />
          </mxGeometry>
        </mxCell>
        <mxCell id="701janBloOA3HdeUx_5--139" value="1" style="edgeLabel;html=1;align=center;verticalAlign=middle;resizable=0;points=[];" connectable="0" vertex="1" parent="701janBloOA3HdeUx_5--34">
          <mxGeometry x="0.7634" y="-1" relative="1" as="geometry">
            <mxPoint as="offset" />
          </mxGeometry>
        </mxCell>
        <mxCell id="701janBloOA3HdeUx_5--35" value="" style="endArrow=none;html=1;rounded=0;" edge="1" parent="1" source="701janBloOA3HdeUx_5--133" target="701janBloOA3HdeUx_5--27">
          <mxGeometry width="50" height="50" relative="1" as="geometry">
            <mxPoint x="200" y="1080" as="sourcePoint" />
            <mxPoint x="320" y="1000" as="targetPoint" />
          </mxGeometry>
        </mxCell>
        <mxCell id="701janBloOA3HdeUx_5--140" value="1" style="edgeLabel;html=1;align=center;verticalAlign=middle;resizable=0;points=[];" connectable="0" vertex="1" parent="701janBloOA3HdeUx_5--35">
          <mxGeometry x="0.6575" y="-1" relative="1" as="geometry">
            <mxPoint as="offset" />
          </mxGeometry>
        </mxCell>
        <mxCell id="701janBloOA3HdeUx_5--36" value="" style="endArrow=none;html=1;rounded=0;" edge="1" parent="1" source="701janBloOA3HdeUx_5--134" target="701janBloOA3HdeUx_5--28">
          <mxGeometry width="50" height="50" relative="1" as="geometry">
            <mxPoint x="320" y="1100" as="sourcePoint" />
            <mxPoint x="395" y="990" as="targetPoint" />
          </mxGeometry>
        </mxCell>
        <mxCell id="701janBloOA3HdeUx_5--141" value="1" style="edgeLabel;html=1;align=center;verticalAlign=middle;resizable=0;points=[];" connectable="0" vertex="1" parent="701janBloOA3HdeUx_5--36">
          <mxGeometry x="0.8508" y="-1" relative="1" as="geometry">
            <mxPoint as="offset" />
          </mxGeometry>
        </mxCell>
        <mxCell id="701janBloOA3HdeUx_5--37" value="" style="endArrow=none;html=1;rounded=0;" edge="1" parent="1" source="701janBloOA3HdeUx_5--122" target="701janBloOA3HdeUx_5--19">
          <mxGeometry width="50" height="50" relative="1" as="geometry">
            <mxPoint x="130.52631578947376" y="1265.2631578947367" as="sourcePoint" />
            <mxPoint x="545" y="1130" as="targetPoint" />
          </mxGeometry>
        </mxCell>
        <mxCell id="701janBloOA3HdeUx_5--125" value="1" style="edgeLabel;html=1;align=center;verticalAlign=middle;resizable=0;points=[];" connectable="0" vertex="1" parent="701janBloOA3HdeUx_5--37">
          <mxGeometry x="0.569" relative="1" as="geometry">
            <mxPoint as="offset" />
          </mxGeometry>
        </mxCell>
        <mxCell id="701janBloOA3HdeUx_5--38" value="" style="endArrow=none;html=1;rounded=0;" edge="1" parent="1" source="701janBloOA3HdeUx_5--26" target="701janBloOA3HdeUx_5--30">
          <mxGeometry width="50" height="50" relative="1" as="geometry">
            <mxPoint x="371" y="1063" as="sourcePoint" />
            <mxPoint x="270" y="1000" as="targetPoint" />
          </mxGeometry>
        </mxCell>
        <mxCell id="701janBloOA3HdeUx_5--142" value="1" style="edgeLabel;html=1;align=center;verticalAlign=middle;resizable=0;points=[];" connectable="0" vertex="1" parent="701janBloOA3HdeUx_5--38">
          <mxGeometry x="-0.7735" y="-1" relative="1" as="geometry">
            <mxPoint as="offset" />
          </mxGeometry>
        </mxCell>
        <mxCell id="701janBloOA3HdeUx_5--39" value="" style="endArrow=none;html=1;rounded=0;" edge="1" parent="1" source="701janBloOA3HdeUx_5--27" target="701janBloOA3HdeUx_5--145">
          <mxGeometry width="50" height="50" relative="1" as="geometry">
            <mxPoint x="350" y="935" as="sourcePoint" />
            <mxPoint x="180" y="899.9999999999998" as="targetPoint" />
          </mxGeometry>
        </mxCell>
        <mxCell id="701janBloOA3HdeUx_5--149" value="1" style="edgeLabel;html=1;align=center;verticalAlign=middle;resizable=0;points=[];" connectable="0" vertex="1" parent="701janBloOA3HdeUx_5--39">
          <mxGeometry x="-0.7247" y="-2" relative="1" as="geometry">
            <mxPoint as="offset" />
          </mxGeometry>
        </mxCell>
        <mxCell id="701janBloOA3HdeUx_5--40" value="" style="endArrow=none;html=1;rounded=0;" edge="1" parent="1" source="701janBloOA3HdeUx_5--28" target="701janBloOA3HdeUx_5--146">
          <mxGeometry width="50" height="50" relative="1" as="geometry">
            <mxPoint x="330" y="930" as="sourcePoint" />
            <mxPoint x="290" y="850" as="targetPoint" />
          </mxGeometry>
        </mxCell>
        <mxCell id="701janBloOA3HdeUx_5--150" value="1" style="edgeLabel;html=1;align=center;verticalAlign=middle;resizable=0;points=[];" connectable="0" vertex="1" parent="701janBloOA3HdeUx_5--40">
          <mxGeometry x="-0.7202" y="2" relative="1" as="geometry">
            <mxPoint as="offset" />
          </mxGeometry>
        </mxCell>
        <mxCell id="701janBloOA3HdeUx_5--43" value="" style="endArrow=none;html=1;rounded=0;" edge="1" parent="1" source="701janBloOA3HdeUx_5--30" target="701janBloOA3HdeUx_5--29">
          <mxGeometry width="50" height="50" relative="1" as="geometry">
            <mxPoint x="484" y="945" as="sourcePoint" />
            <mxPoint x="390" y="900" as="targetPoint" />
          </mxGeometry>
        </mxCell>
        <mxCell id="701janBloOA3HdeUx_5--152" value="1" style="edgeLabel;html=1;align=center;verticalAlign=middle;resizable=0;points=[];" connectable="0" vertex="1" parent="701janBloOA3HdeUx_5--43">
          <mxGeometry x="0.7391" relative="1" as="geometry">
            <mxPoint as="offset" />
          </mxGeometry>
        </mxCell>
        <mxCell id="701janBloOA3HdeUx_5--44" value="" style="endArrow=none;html=1;rounded=0;" edge="1" parent="1" source="701janBloOA3HdeUx_5--29" target="701janBloOA3HdeUx_5--23">
          <mxGeometry width="50" height="50" relative="1" as="geometry">
            <mxPoint x="446" y="864" as="sourcePoint" />
            <mxPoint x="430" y="810" as="targetPoint" />
          </mxGeometry>
        </mxCell>
        <mxCell id="701janBloOA3HdeUx_5--111" value="1" style="edgeLabel;html=1;align=center;verticalAlign=middle;resizable=0;points=[];" connectable="0" vertex="1" parent="701janBloOA3HdeUx_5--44">
          <mxGeometry x="-0.6583" y="1" relative="1" as="geometry">
            <mxPoint as="offset" />
          </mxGeometry>
        </mxCell>
        <mxCell id="701janBloOA3HdeUx_5--46" value="" style="endArrow=none;html=1;rounded=0;" edge="1" parent="1" source="701janBloOA3HdeUx_5--95" target="701janBloOA3HdeUx_5--9">
          <mxGeometry width="50" height="50" relative="1" as="geometry">
            <mxPoint x="460" y="743" as="sourcePoint" />
            <mxPoint x="470" y="700" as="targetPoint" />
          </mxGeometry>
        </mxCell>
        <mxCell id="701janBloOA3HdeUx_5--106" value="n" style="edgeLabel;html=1;align=center;verticalAlign=middle;resizable=0;points=[];" connectable="0" vertex="1" parent="701janBloOA3HdeUx_5--46">
          <mxGeometry x="0.7176" y="2" relative="1" as="geometry">
            <mxPoint as="offset" />
          </mxGeometry>
        </mxCell>
        <mxCell id="701janBloOA3HdeUx_5--47" value="" style="endArrow=none;html=1;rounded=0;" edge="1" parent="1" source="701janBloOA3HdeUx_5--23" target="701janBloOA3HdeUx_5--10">
          <mxGeometry width="50" height="50" relative="1" as="geometry">
            <mxPoint x="330" y="800" as="sourcePoint" />
            <mxPoint x="240" y="680" as="targetPoint" />
          </mxGeometry>
        </mxCell>
        <mxCell id="701janBloOA3HdeUx_5--112" value="n" style="edgeLabel;html=1;align=center;verticalAlign=middle;resizable=0;points=[];" connectable="0" vertex="1" parent="701janBloOA3HdeUx_5--47">
          <mxGeometry x="0.4921" relative="1" as="geometry">
            <mxPoint as="offset" />
          </mxGeometry>
        </mxCell>
        <mxCell id="701janBloOA3HdeUx_5--50" value="" style="endArrow=none;html=1;rounded=0;" edge="1" parent="1" source="701janBloOA3HdeUx_5--9" target="701janBloOA3HdeUx_5--20">
          <mxGeometry width="50" height="50" relative="1" as="geometry">
            <mxPoint x="306" y="790" as="sourcePoint" />
            <mxPoint x="210" y="680" as="targetPoint" />
          </mxGeometry>
        </mxCell>
        <mxCell id="701janBloOA3HdeUx_5--109" value="1" style="edgeLabel;html=1;align=center;verticalAlign=middle;resizable=0;points=[];" connectable="0" vertex="1" parent="701janBloOA3HdeUx_5--50">
          <mxGeometry x="-0.7644" y="-1" relative="1" as="geometry">
            <mxPoint as="offset" />
          </mxGeometry>
        </mxCell>
        <mxCell id="701janBloOA3HdeUx_5--51" value="" style="endArrow=none;html=1;rounded=0;" edge="1" parent="1" source="701janBloOA3HdeUx_5--92" target="701janBloOA3HdeUx_5--29">
          <mxGeometry width="50" height="50" relative="1" as="geometry">
            <mxPoint x="220" y="670" as="sourcePoint" />
            <mxPoint x="234" y="610" as="targetPoint" />
          </mxGeometry>
        </mxCell>
        <mxCell id="701janBloOA3HdeUx_5--108" value="1" style="edgeLabel;html=1;align=center;verticalAlign=middle;resizable=0;points=[];" connectable="0" vertex="1" parent="701janBloOA3HdeUx_5--51">
          <mxGeometry x="0.6" relative="1" as="geometry">
            <mxPoint as="offset" />
          </mxGeometry>
        </mxCell>
        <mxCell id="701janBloOA3HdeUx_5--52" value="" style="endArrow=none;html=1;rounded=0;" edge="1" parent="1" source="701janBloOA3HdeUx_5--10" target="701janBloOA3HdeUx_5--18">
          <mxGeometry width="50" height="50" relative="1" as="geometry">
            <mxPoint x="250" y="537" as="sourcePoint" />
            <mxPoint x="320" y="520" as="targetPoint" />
          </mxGeometry>
        </mxCell>
        <mxCell id="701janBloOA3HdeUx_5--53" value="" style="endArrow=none;html=1;rounded=0;" edge="1" parent="1" source="701janBloOA3HdeUx_5--18" target="701janBloOA3HdeUx_5--84">
          <mxGeometry width="50" height="50" relative="1" as="geometry">
            <mxPoint x="311" y="503" as="sourcePoint" />
            <mxPoint x="590" y="440" as="targetPoint" />
          </mxGeometry>
        </mxCell>
        <mxCell id="701janBloOA3HdeUx_5--55" value="" style="endArrow=none;html=1;rounded=0;" edge="1" parent="1" source="701janBloOA3HdeUx_5--15" target="701janBloOA3HdeUx_5--8">
          <mxGeometry width="50" height="50" relative="1" as="geometry">
            <mxPoint x="320" y="390" as="sourcePoint" />
            <mxPoint x="280" y="350" as="targetPoint" />
          </mxGeometry>
        </mxCell>
        <mxCell id="701janBloOA3HdeUx_5--119" value="1" style="edgeLabel;html=1;align=center;verticalAlign=middle;resizable=0;points=[];" connectable="0" vertex="1" parent="701janBloOA3HdeUx_5--55">
          <mxGeometry x="-0.5943" y="1" relative="1" as="geometry">
            <mxPoint as="offset" />
          </mxGeometry>
        </mxCell>
        <mxCell id="701janBloOA3HdeUx_5--56" value="" style="endArrow=none;html=1;rounded=0;" edge="1" parent="1" source="701janBloOA3HdeUx_5--2" target="701janBloOA3HdeUx_5--8">
          <mxGeometry width="50" height="50" relative="1" as="geometry">
            <mxPoint x="357" y="425" as="sourcePoint" />
            <mxPoint x="260" y="380" as="targetPoint" />
          </mxGeometry>
        </mxCell>
        <mxCell id="701janBloOA3HdeUx_5--120" value="n" style="edgeLabel;html=1;align=center;verticalAlign=middle;resizable=0;points=[];" connectable="0" vertex="1" parent="701janBloOA3HdeUx_5--56">
          <mxGeometry x="-0.486" y="1" relative="1" as="geometry">
            <mxPoint as="offset" />
          </mxGeometry>
        </mxCell>
        <mxCell id="701janBloOA3HdeUx_5--57" value="" style="endArrow=none;html=1;rounded=0;" edge="1" parent="1" source="701janBloOA3HdeUx_5--4" target="701janBloOA3HdeUx_5--2">
          <mxGeometry width="50" height="50" relative="1" as="geometry">
            <mxPoint x="370" y="410" as="sourcePoint" />
            <mxPoint x="280" y="464" as="targetPoint" />
          </mxGeometry>
        </mxCell>
        <mxCell id="701janBloOA3HdeUx_5--58" value="" style="endArrow=none;html=1;rounded=0;" edge="1" parent="1" source="701janBloOA3HdeUx_5--1" target="701janBloOA3HdeUx_5--2">
          <mxGeometry width="50" height="50" relative="1" as="geometry">
            <mxPoint x="318" y="350" as="sourcePoint" />
            <mxPoint x="310" y="380" as="targetPoint" />
          </mxGeometry>
        </mxCell>
        <mxCell id="701janBloOA3HdeUx_5--59" value="" style="endArrow=none;html=1;rounded=0;" edge="1" parent="1" source="701janBloOA3HdeUx_5--14" target="701janBloOA3HdeUx_5--2">
          <mxGeometry width="50" height="50" relative="1" as="geometry">
            <mxPoint x="420" y="360" as="sourcePoint" />
            <mxPoint x="340" y="395" as="targetPoint" />
          </mxGeometry>
        </mxCell>
        <mxCell id="701janBloOA3HdeUx_5--60" value="" style="endArrow=none;html=1;rounded=0;" edge="1" parent="1" source="701janBloOA3HdeUx_5--5" target="701janBloOA3HdeUx_5--2">
          <mxGeometry width="50" height="50" relative="1" as="geometry">
            <mxPoint x="389" y="390" as="sourcePoint" />
            <mxPoint x="340" y="480" as="targetPoint" />
          </mxGeometry>
        </mxCell>
        <mxCell id="701janBloOA3HdeUx_5--61" value="" style="endArrow=none;html=1;rounded=0;" edge="1" parent="1" source="701janBloOA3HdeUx_5--2" target="701janBloOA3HdeUx_5--13">
          <mxGeometry width="50" height="50" relative="1" as="geometry">
            <mxPoint x="260" y="380" as="sourcePoint" />
            <mxPoint x="313" y="413" as="targetPoint" />
          </mxGeometry>
        </mxCell>
        <mxCell id="701janBloOA3HdeUx_5--62" value="creation_date" style="ellipse;whiteSpace=wrap;html=1;align=center;" vertex="1" parent="1">
          <mxGeometry x="170" y="1500" width="100" height="40" as="geometry" />
        </mxCell>
        <mxCell id="701janBloOA3HdeUx_5--63" value="edit_date" style="ellipse;whiteSpace=wrap;html=1;align=center;" vertex="1" parent="1">
          <mxGeometry x="290" y="1460" width="100" height="40" as="geometry" />
        </mxCell>
        <mxCell id="701janBloOA3HdeUx_5--64" value="word_count" style="ellipse;whiteSpace=wrap;html=1;align=center;" vertex="1" parent="1">
          <mxGeometry x="-40" y="1370" width="100" height="40" as="geometry" />
        </mxCell>
        <mxCell id="701janBloOA3HdeUx_5--65" value="pages" style="ellipse;whiteSpace=wrap;html=1;align=center;" vertex="1" parent="1">
          <mxGeometry x="-70" y="1450" width="100" height="40" as="geometry" />
        </mxCell>
        <mxCell id="701janBloOA3HdeUx_5--67" value="" style="endArrow=none;html=1;rounded=0;" edge="1" parent="1" source="701janBloOA3HdeUx_5--25" target="701janBloOA3HdeUx_5--19">
          <mxGeometry width="50" height="50" relative="1" as="geometry">
            <mxPoint x="400" y="1400" as="sourcePoint" />
            <mxPoint x="400" y="1470" as="targetPoint" />
          </mxGeometry>
        </mxCell>
        <mxCell id="701janBloOA3HdeUx_5--68" value="" style="endArrow=none;html=1;rounded=0;" edge="1" parent="1" source="701janBloOA3HdeUx_5--19" target="701janBloOA3HdeUx_5--62">
          <mxGeometry width="50" height="50" relative="1" as="geometry">
            <mxPoint x="490" y="1260" as="sourcePoint" />
            <mxPoint x="420" y="1282" as="targetPoint" />
          </mxGeometry>
        </mxCell>
        <mxCell id="701janBloOA3HdeUx_5--69" value="" style="endArrow=none;html=1;rounded=0;" edge="1" parent="1" source="701janBloOA3HdeUx_5--63" target="701janBloOA3HdeUx_5--19">
          <mxGeometry width="50" height="50" relative="1" as="geometry">
            <mxPoint x="570" y="1510" as="sourcePoint" />
            <mxPoint x="638" y="1526" as="targetPoint" />
          </mxGeometry>
        </mxCell>
        <mxCell id="701janBloOA3HdeUx_5--70" value="" style="endArrow=none;html=1;rounded=0;" edge="1" parent="1" source="701janBloOA3HdeUx_5--65" target="701janBloOA3HdeUx_5--19">
          <mxGeometry width="50" height="50" relative="1" as="geometry">
            <mxPoint x="615" y="1651" as="sourcePoint" />
            <mxPoint x="570" y="1580" as="targetPoint" />
          </mxGeometry>
        </mxCell>
        <mxCell id="701janBloOA3HdeUx_5--71" value="" style="endArrow=none;html=1;rounded=0;" edge="1" parent="1" source="701janBloOA3HdeUx_5--19" target="701janBloOA3HdeUx_5--64">
          <mxGeometry width="50" height="50" relative="1" as="geometry">
            <mxPoint x="350" y="1379" as="sourcePoint" />
            <mxPoint x="432" y="1350" as="targetPoint" />
          </mxGeometry>
        </mxCell>
        <mxCell id="701janBloOA3HdeUx_5--72" value="" style="endArrow=none;html=1;rounded=0;" edge="1" parent="1" source="701janBloOA3HdeUx_5--24" target="701janBloOA3HdeUx_5--29">
          <mxGeometry width="50" height="50" relative="1" as="geometry">
            <mxPoint x="410" y="821" as="sourcePoint" />
            <mxPoint x="473" y="770" as="targetPoint" />
          </mxGeometry>
        </mxCell>
        <mxCell id="701janBloOA3HdeUx_5--73" value="" style="endArrow=none;html=1;rounded=0;" edge="1" parent="1" source="701janBloOA3HdeUx_5--16" target="701janBloOA3HdeUx_5--24">
          <mxGeometry width="50" height="50" relative="1" as="geometry">
            <mxPoint x="630" y="840" as="sourcePoint" />
            <mxPoint x="560" y="840" as="targetPoint" />
          </mxGeometry>
        </mxCell>
        <mxCell id="701janBloOA3HdeUx_5--74" value="font" style="ellipse;whiteSpace=wrap;html=1;align=center;" vertex="1" parent="1">
          <mxGeometry x="140" y="210" width="100" height="40" as="geometry" />
        </mxCell>
        <mxCell id="701janBloOA3HdeUx_5--75" value="" style="endArrow=none;html=1;rounded=0;" edge="1" parent="1" source="701janBloOA3HdeUx_5--2" target="701janBloOA3HdeUx_5--74">
          <mxGeometry width="50" height="50" relative="1" as="geometry">
            <mxPoint x="399" y="280" as="sourcePoint" />
            <mxPoint x="350" y="370" as="targetPoint" />
          </mxGeometry>
        </mxCell>
        <mxCell id="701janBloOA3HdeUx_5--76" value="size" style="ellipse;whiteSpace=wrap;html=1;align=center;" vertex="1" parent="1">
          <mxGeometry x="390" y="340" width="100" height="40" as="geometry" />
        </mxCell>
        <mxCell id="701janBloOA3HdeUx_5--77" value="numbered" style="ellipse;whiteSpace=wrap;html=1;align=center;" vertex="1" parent="1">
          <mxGeometry x="720" y="830" width="100" height="40" as="geometry" />
        </mxCell>
        <mxCell id="701janBloOA3HdeUx_5--78" value="rows" style="ellipse;whiteSpace=wrap;html=1;align=center;" vertex="1" parent="1">
          <mxGeometry x="-240" y="890" width="100" height="40" as="geometry" />
        </mxCell>
        <mxCell id="701janBloOA3HdeUx_5--79" value="columns" style="ellipse;whiteSpace=wrap;html=1;align=center;" vertex="1" parent="1">
          <mxGeometry x="-410" y="800" width="100" height="40" as="geometry" />
        </mxCell>
        <mxCell id="701janBloOA3HdeUx_5--80" value="" style="endArrow=none;html=1;rounded=0;" edge="1" parent="1" source="701janBloOA3HdeUx_5--9" target="701janBloOA3HdeUx_5--79">
          <mxGeometry width="50" height="50" relative="1" as="geometry">
            <mxPoint x="210" y="723" as="sourcePoint" />
            <mxPoint x="220" y="680" as="targetPoint" />
          </mxGeometry>
        </mxCell>
        <mxCell id="701janBloOA3HdeUx_5--82" value="" style="endArrow=none;html=1;rounded=0;" edge="1" parent="1" source="701janBloOA3HdeUx_5--78" target="701janBloOA3HdeUx_5--9">
          <mxGeometry width="50" height="50" relative="1" as="geometry">
            <mxPoint x="191" y="754" as="sourcePoint" />
            <mxPoint x="130" y="750" as="targetPoint" />
          </mxGeometry>
        </mxCell>
        <mxCell id="701janBloOA3HdeUx_5--83" value="" style="endArrow=none;html=1;rounded=0;" edge="1" parent="1" source="701janBloOA3HdeUx_5--76" target="701janBloOA3HdeUx_5--2">
          <mxGeometry width="50" height="50" relative="1" as="geometry">
            <mxPoint x="430" y="370" as="sourcePoint" />
            <mxPoint x="350" y="405" as="targetPoint" />
          </mxGeometry>
        </mxCell>
        <mxCell id="701janBloOA3HdeUx_5--84" value="bulletpoints" style="whiteSpace=wrap;html=1;align=center;" vertex="1" parent="1">
          <mxGeometry x="660" y="530" width="100" height="40" as="geometry" />
        </mxCell>
        <mxCell id="701janBloOA3HdeUx_5--85" value="" style="endArrow=none;html=1;rounded=0;" edge="1" parent="1" source="701janBloOA3HdeUx_5--10" target="701janBloOA3HdeUx_5--77">
          <mxGeometry width="50" height="50" relative="1" as="geometry">
            <mxPoint x="330" y="650" as="sourcePoint" />
            <mxPoint x="415" y="620" as="targetPoint" />
          </mxGeometry>
        </mxCell>
        <mxCell id="701janBloOA3HdeUx_5--86" value="contain" style="shape=rhombus;perimeter=rhombusPerimeter;whiteSpace=wrap;html=1;align=center;" vertex="1" parent="1">
          <mxGeometry x="400" y="600" width="120" height="60" as="geometry" />
        </mxCell>
        <mxCell id="701janBloOA3HdeUx_5--87" value="" style="endArrow=none;html=1;rounded=0;" edge="1" parent="1" source="701janBloOA3HdeUx_5--86" target="701janBloOA3HdeUx_5--29">
          <mxGeometry width="50" height="50" relative="1" as="geometry">
            <mxPoint x="437" y="475" as="sourcePoint" />
            <mxPoint x="340" y="430" as="targetPoint" />
          </mxGeometry>
        </mxCell>
        <mxCell id="701janBloOA3HdeUx_5--115" value="1" style="edgeLabel;html=1;align=center;verticalAlign=middle;resizable=0;points=[];" connectable="0" vertex="1" parent="701janBloOA3HdeUx_5--87">
          <mxGeometry x="0.868" relative="1" as="geometry">
            <mxPoint as="offset" />
          </mxGeometry>
        </mxCell>
        <mxCell id="701janBloOA3HdeUx_5--88" value="" style="endArrow=none;html=1;rounded=0;" edge="1" parent="1" source="701janBloOA3HdeUx_5--84" target="701janBloOA3HdeUx_5--86">
          <mxGeometry width="50" height="50" relative="1" as="geometry">
            <mxPoint x="637" y="478" as="sourcePoint" />
            <mxPoint x="580" y="470" as="targetPoint" />
          </mxGeometry>
        </mxCell>
        <mxCell id="701janBloOA3HdeUx_5--114" value="1" style="edgeLabel;html=1;align=center;verticalAlign=middle;resizable=0;points=[];" connectable="0" vertex="1" parent="701janBloOA3HdeUx_5--88">
          <mxGeometry x="-0.6611" y="1" relative="1" as="geometry">
            <mxPoint as="offset" />
          </mxGeometry>
        </mxCell>
        <mxCell id="701janBloOA3HdeUx_5--89" value="" style="endArrow=none;html=1;rounded=0;" edge="1" parent="1" source="701janBloOA3HdeUx_5--90" target="701janBloOA3HdeUx_5--20">
          <mxGeometry width="50" height="50" relative="1" as="geometry">
            <mxPoint x="400" y="604" as="sourcePoint" />
            <mxPoint x="476" y="600" as="targetPoint" />
          </mxGeometry>
        </mxCell>
        <mxCell id="701janBloOA3HdeUx_5--110" value="n" style="edgeLabel;html=1;align=center;verticalAlign=middle;resizable=0;points=[];" connectable="0" vertex="1" parent="701janBloOA3HdeUx_5--89">
          <mxGeometry x="-0.5496" y="2" relative="1" as="geometry">
            <mxPoint as="offset" />
          </mxGeometry>
        </mxCell>
        <mxCell id="701janBloOA3HdeUx_5--90" value="cells" style="whiteSpace=wrap;html=1;align=center;" vertex="1" parent="1">
          <mxGeometry x="-280" y="600" width="100" height="40" as="geometry" />
        </mxCell>
        <mxCell id="701janBloOA3HdeUx_5--92" value="contain" style="shape=rhombus;perimeter=rhombusPerimeter;whiteSpace=wrap;html=1;align=center;" vertex="1" parent="1">
          <mxGeometry x="-40" y="580" width="120" height="60" as="geometry" />
        </mxCell>
        <mxCell id="701janBloOA3HdeUx_5--93" value="" style="endArrow=none;html=1;rounded=0;" edge="1" parent="1" source="701janBloOA3HdeUx_5--92" target="701janBloOA3HdeUx_5--90">
          <mxGeometry width="50" height="50" relative="1" as="geometry">
            <mxPoint x="162" y="670" as="sourcePoint" />
            <mxPoint x="100" y="678" as="targetPoint" />
          </mxGeometry>
        </mxCell>
        <mxCell id="701janBloOA3HdeUx_5--107" value="1" style="edgeLabel;html=1;align=center;verticalAlign=middle;resizable=0;points=[];" connectable="0" vertex="1" parent="701janBloOA3HdeUx_5--93">
          <mxGeometry x="0.5897" y="1" relative="1" as="geometry">
            <mxPoint as="offset" />
          </mxGeometry>
        </mxCell>
        <mxCell id="701janBloOA3HdeUx_5--95" value="contain" style="shape=rhombus;perimeter=rhombusPerimeter;whiteSpace=wrap;html=1;align=center;" vertex="1" parent="1">
          <mxGeometry x="-110" y="720" width="120" height="60" as="geometry" />
        </mxCell>
        <mxCell id="701janBloOA3HdeUx_5--96" value="" style="endArrow=none;html=1;rounded=0;" edge="1" parent="1" source="701janBloOA3HdeUx_5--29" target="701janBloOA3HdeUx_5--95">
          <mxGeometry width="50" height="50" relative="1" as="geometry">
            <mxPoint x="190" y="844" as="sourcePoint" />
            <mxPoint x="150" y="820" as="targetPoint" />
          </mxGeometry>
        </mxCell>
        <mxCell id="701janBloOA3HdeUx_5--105" value="1" style="edgeLabel;html=1;align=center;verticalAlign=middle;resizable=0;points=[];" connectable="0" vertex="1" parent="701janBloOA3HdeUx_5--96">
          <mxGeometry x="-0.7717" y="3" relative="1" as="geometry">
            <mxPoint as="offset" />
          </mxGeometry>
        </mxCell>
        <mxCell id="701janBloOA3HdeUx_5--100" value="width" style="ellipse;whiteSpace=wrap;html=1;align=center;" vertex="1" parent="1">
          <mxGeometry x="-290" y="520" width="100" height="40" as="geometry" />
        </mxCell>
        <mxCell id="701janBloOA3HdeUx_5--101" value="height" style="ellipse;whiteSpace=wrap;html=1;align=center;" vertex="1" parent="1">
          <mxGeometry x="-130" y="500" width="100" height="40" as="geometry" />
        </mxCell>
        <mxCell id="701janBloOA3HdeUx_5--102" value="" style="endArrow=none;html=1;rounded=0;" edge="1" parent="1" source="701janBloOA3HdeUx_5--101" target="701janBloOA3HdeUx_5--90">
          <mxGeometry width="50" height="50" relative="1" as="geometry">
            <mxPoint x="16" y="630" as="sourcePoint" />
            <mxPoint x="-80" y="684" as="targetPoint" />
          </mxGeometry>
        </mxCell>
        <mxCell id="701janBloOA3HdeUx_5--103" value="" style="endArrow=none;html=1;rounded=0;" edge="1" parent="1" source="701janBloOA3HdeUx_5--100" target="701janBloOA3HdeUx_5--90">
          <mxGeometry width="50" height="50" relative="1" as="geometry">
            <mxPoint x="26" y="640" as="sourcePoint" />
            <mxPoint x="-70" y="694" as="targetPoint" />
          </mxGeometry>
        </mxCell>
        <mxCell id="701janBloOA3HdeUx_5--116" value="" style="endArrow=none;html=1;rounded=0;" edge="1" parent="1" source="701janBloOA3HdeUx_5--15" target="701janBloOA3HdeUx_5--29">
          <mxGeometry width="50" height="50" relative="1" as="geometry">
            <mxPoint x="797" y="540" as="sourcePoint" />
            <mxPoint x="530" y="694" as="targetPoint" />
          </mxGeometry>
        </mxCell>
        <mxCell id="701janBloOA3HdeUx_5--117" value="1" style="edgeLabel;html=1;align=center;verticalAlign=middle;resizable=0;points=[];" connectable="0" vertex="1" parent="701janBloOA3HdeUx_5--116">
          <mxGeometry x="0.868" relative="1" as="geometry">
            <mxPoint as="offset" />
          </mxGeometry>
        </mxCell>
        <mxCell id="701janBloOA3HdeUx_5--118" value="n" style="edgeLabel;html=1;align=center;verticalAlign=middle;resizable=0;points=[];" connectable="0" vertex="1" parent="701janBloOA3HdeUx_5--116">
          <mxGeometry x="-0.7674" y="1" relative="1" as="geometry">
            <mxPoint as="offset" />
          </mxGeometry>
        </mxCell>
        <mxCell id="701janBloOA3HdeUx_5--121" value="pages" style="whiteSpace=wrap;html=1;align=center;" vertex="1" parent="1">
          <mxGeometry x="130" y="1190" width="100" height="40" as="geometry" />
        </mxCell>
        <mxCell id="701janBloOA3HdeUx_5--122" value="contain" style="shape=rhombus;perimeter=rhombusPerimeter;whiteSpace=wrap;html=1;align=center;" vertex="1" parent="1">
          <mxGeometry x="120" y="1290" width="120" height="60" as="geometry" />
        </mxCell>
        <mxCell id="701janBloOA3HdeUx_5--123" value="" style="endArrow=none;html=1;rounded=0;" edge="1" parent="1" source="701janBloOA3HdeUx_5--121" target="701janBloOA3HdeUx_5--122">
          <mxGeometry width="50" height="50" relative="1" as="geometry">
            <mxPoint x="203" y="1270" as="sourcePoint" />
            <mxPoint x="190" y="1305" as="targetPoint" />
          </mxGeometry>
        </mxCell>
        <mxCell id="701janBloOA3HdeUx_5--126" value="n" style="edgeLabel;html=1;align=center;verticalAlign=middle;resizable=0;points=[];" connectable="0" vertex="1" parent="701janBloOA3HdeUx_5--123">
          <mxGeometry x="-0.4337" y="-3" relative="1" as="geometry">
            <mxPoint as="offset" />
          </mxGeometry>
        </mxCell>
        <mxCell id="701janBloOA3HdeUx_5--127" value="contain" style="shape=rhombus;perimeter=rhombusPerimeter;whiteSpace=wrap;html=1;align=center;" vertex="1" parent="1">
          <mxGeometry x="-40" y="1070" width="120" height="60" as="geometry" />
        </mxCell>
        <mxCell id="701janBloOA3HdeUx_5--128" value="author" style="ellipse;whiteSpace=wrap;html=1;align=center;" vertex="1" parent="1">
          <mxGeometry x="50" y="1510" width="100" height="40" as="geometry" />
        </mxCell>
        <mxCell id="701janBloOA3HdeUx_5--129" value="" style="endArrow=none;html=1;rounded=0;" edge="1" parent="1" source="701janBloOA3HdeUx_5--19" target="701janBloOA3HdeUx_5--128">
          <mxGeometry width="50" height="50" relative="1" as="geometry">
            <mxPoint x="280" y="1490" as="sourcePoint" />
            <mxPoint x="310" y="1550" as="targetPoint" />
          </mxGeometry>
        </mxCell>
        <mxCell id="701janBloOA3HdeUx_5--130" value="" style="endArrow=none;html=1;rounded=0;" edge="1" parent="1" source="701janBloOA3HdeUx_5--127" target="701janBloOA3HdeUx_5--121">
          <mxGeometry width="50" height="50" relative="1" as="geometry">
            <mxPoint x="240" y="1300" as="sourcePoint" />
            <mxPoint x="264" y="1365" as="targetPoint" />
          </mxGeometry>
        </mxCell>
        <mxCell id="701janBloOA3HdeUx_5--132" value="1" style="edgeLabel;html=1;align=center;verticalAlign=middle;resizable=0;points=[];" connectable="0" vertex="1" parent="701janBloOA3HdeUx_5--130">
          <mxGeometry x="0.6586" y="-1" relative="1" as="geometry">
            <mxPoint as="offset" />
          </mxGeometry>
        </mxCell>
        <mxCell id="701janBloOA3HdeUx_5--133" value="contain" style="shape=rhombus;perimeter=rhombusPerimeter;whiteSpace=wrap;html=1;align=center;" vertex="1" parent="1">
          <mxGeometry x="130" y="1070" width="120" height="60" as="geometry" />
        </mxCell>
        <mxCell id="701janBloOA3HdeUx_5--134" value="contain" style="shape=rhombus;perimeter=rhombusPerimeter;whiteSpace=wrap;html=1;align=center;" vertex="1" parent="1">
          <mxGeometry x="310" y="1070" width="120" height="60" as="geometry" />
        </mxCell>
        <mxCell id="701janBloOA3HdeUx_5--135" value="" style="endArrow=none;html=1;rounded=0;" edge="1" parent="1" source="701janBloOA3HdeUx_5--133" target="701janBloOA3HdeUx_5--121">
          <mxGeometry width="50" height="50" relative="1" as="geometry">
            <mxPoint x="190" y="1160" as="sourcePoint" />
            <mxPoint x="277" y="1222" as="targetPoint" />
          </mxGeometry>
        </mxCell>
        <mxCell id="701janBloOA3HdeUx_5--136" value="1" style="edgeLabel;html=1;align=center;verticalAlign=middle;resizable=0;points=[];" connectable="0" vertex="1" parent="701janBloOA3HdeUx_5--135">
          <mxGeometry x="0.6586" y="-1" relative="1" as="geometry">
            <mxPoint as="offset" />
          </mxGeometry>
        </mxCell>
        <mxCell id="701janBloOA3HdeUx_5--137" value="" style="endArrow=none;html=1;rounded=0;" edge="1" parent="1" source="701janBloOA3HdeUx_5--134" target="701janBloOA3HdeUx_5--121">
          <mxGeometry width="50" height="50" relative="1" as="geometry">
            <mxPoint x="276" y="1140" as="sourcePoint" />
            <mxPoint x="250" y="1224" as="targetPoint" />
          </mxGeometry>
        </mxCell>
        <mxCell id="701janBloOA3HdeUx_5--138" value="1" style="edgeLabel;html=1;align=center;verticalAlign=middle;resizable=0;points=[];" connectable="0" vertex="1" parent="701janBloOA3HdeUx_5--137">
          <mxGeometry x="0.6586" y="-1" relative="1" as="geometry">
            <mxPoint as="offset" />
          </mxGeometry>
        </mxCell>
        <mxCell id="701janBloOA3HdeUx_5--145" value="have" style="shape=rhombus;perimeter=rhombusPerimeter;whiteSpace=wrap;html=1;align=center;" vertex="1" parent="1">
          <mxGeometry x="110" y="870" width="120" height="60" as="geometry" />
        </mxCell>
        <mxCell id="701janBloOA3HdeUx_5--146" value="have" style="shape=rhombus;perimeter=rhombusPerimeter;whiteSpace=wrap;html=1;align=center;" vertex="1" parent="1">
          <mxGeometry x="280" y="870" width="120" height="60" as="geometry" />
        </mxCell>
        <mxCell id="701janBloOA3HdeUx_5--147" value="" style="endArrow=none;html=1;rounded=0;" edge="1" parent="1" source="701janBloOA3HdeUx_5--145" target="701janBloOA3HdeUx_5--29">
          <mxGeometry width="50" height="50" relative="1" as="geometry">
            <mxPoint x="220" y="990" as="sourcePoint" />
            <mxPoint x="220" y="910" as="targetPoint" />
          </mxGeometry>
        </mxCell>
        <mxCell id="701janBloOA3HdeUx_5--151" value="1" style="edgeLabel;html=1;align=center;verticalAlign=middle;resizable=0;points=[];" connectable="0" vertex="1" parent="701janBloOA3HdeUx_5--147">
          <mxGeometry x="0.8119" y="1" relative="1" as="geometry">
            <mxPoint as="offset" />
          </mxGeometry>
        </mxCell>
        <mxCell id="701janBloOA3HdeUx_5--148" value="" style="endArrow=none;html=1;rounded=0;" edge="1" parent="1" source="701janBloOA3HdeUx_5--146" target="701janBloOA3HdeUx_5--29">
          <mxGeometry width="50" height="50" relative="1" as="geometry">
            <mxPoint x="257" y="984" as="sourcePoint" />
            <mxPoint x="220" y="850" as="targetPoint" />
          </mxGeometry>
        </mxCell>
        <mxCell id="701janBloOA3HdeUx_5--153" value="1" style="edgeLabel;html=1;align=center;verticalAlign=middle;resizable=0;points=[];" connectable="0" vertex="1" parent="701janBloOA3HdeUx_5--148">
          <mxGeometry x="0.7893" y="-1" relative="1" as="geometry">
            <mxPoint as="offset" />
          </mxGeometry>
        </mxCell>
      </root>
    </mxGraphModel>
  </diagram>
</mxfile>
